{"title":"Fairy Tail ep 88","uid":9589449,"size":300310662,"categoryP":"video","categoryS":"tv_shows","magnet":"?xt=urn:btih:efe65504b426170cbbb363d60ecabfdc6e06f0bb&amp;dn=Fairy+Tail+ep+88&amp;tr=udp%3A%2F%2Ftracker.openbittorrent.com%3A80&amp;tr=udp%3A%2F%2Fopen.demonii.com%3A1337&amp;tr=udp%3A%2F%2Ftracker.coppersurfer.tk%3A6969&amp;tr=udp%3A%2F%2Fexodus.desync.com%3A6969","seeders":1,"leechers":0,"uploader":"p7trick","files":-1,"time":1391880792,"description":"Fairy Tail ep 88 ENGLISH DUBBED\n_________________________________________________________\n\nFormat                                   : MPEG-4\nFormat profile                           : Base Media\nCodec ID                                 : isom\nFile size                                : 286 MiB\nDuration                                 : 24mn 31s\nOverall bit rate                         : 1 633 Kbps\nTrack name/Position                      : 1\nRecorded date                            : 2014\nWriting application                      : Lavf55.19.104\nComment                                  : www.dvdvideosoft.com\n\nVideo\nID                                       : 1\nFormat                                   : MPEG-4 Visual\nFormat profile                           : Simple@L1\nFormat settings, BVOP                    : No\nFormat settings, QPel                    : No\nFormat settings, GMC                     : No warppoints\nFormat settings, Matrix                  : Default (H.263)\nCodec ID                                 : 20\nDuration                                 : 24mn 31s\nBit rate mode                            : Constant\nBit rate                                 : 1 501 Kbps\nWidth                                    : 1 024 pixels\nHeight                                   : 768 pixels\nDisplay aspect ratio                     : 16:9\nFrame rate mode                          : Constant\nFrame rate                               : 25.000 fps\nColor space                              : YUV\nChroma subsampling                       : 4:2:0\nBit depth                                : 8 bits\nScan type                                : Progressive\nCompression mode                         : Lossy\nBits/(Pixel*Frame)                       : 0.076\nStream size                              : 263 MiB (92%)\nWriting library                          : Lavc55.39.100\n\nAudio\nID                                       : 2\nFormat                                   : AAC\nFormat/Info                              : Advanced Audio Codec\nFormat profile                           : LC\nCodec ID                                 : 40\nDuration                                 : 24mn 31s\nDuration_LastFrame                       : -6ms\nBit rate mode                            : Constant\nBit rate                                 : 128 Kbps\nChannel count                            : 2 channels\nChannel positions                        : Front: L R\nSampling rate                            : 48.0 KHz\nCompression mode                         : Lossy\nStream size                              : 22.4 MiB (8%)\nLanguage                                 : English\n_________________________________________________________\n\nFairy Tail:\nLucy is a 17-year-old girl, who wants to be a full-fledged mage. One day when visiting Harujion Town, she meets Natsu, a young man who gets sick easily by any type of transportation. But Natsu isnÎ“Ã‡Ã–t just any ordinary kid, heÎ“Ã‡Ã–s a member of one of the worldÎ“Ã‡Ã–s most infamous mage guilds: Fairy Tail.\n\nFor updates/requests:\nTwitter - @p7tricktorrent\nFacebook - /p7tricktorrent\nTPB - /user/p7trick/\nKAT - /user/iPirate7\n_________________________________________________________\n\nSEED!\n\nshare ratio:\n&quot;Scumbag = 0.1:1\nLeecher = 0.999:1\nMinimum = 1:1\nGood = 3:1\nGreat = 5:1\nAwesome = 10:1\n1337 = 100:1&quot;\t","torrent":{"xt":"urn:btih:efe65504b426170cbbb363d60ecabfdc6e06f0bb","amp;dn":"Fairy+Tail+ep+88","amp;tr":["udp%3A%2F%2Ftracker.openbittorrent.com%3A80","udp%3A%2F%2Fopen.demonii.com%3A1337","udp%3A%2F%2Ftracker.coppersurfer.tk%3A6969","udp%3A%2F%2Fexodus.desync.com%3A6969"],"infoHash":"efe65504b426170cbbb363d60ecabfdc6e06f0bb","infoHashBuffer":{"type":"Buffer","data":[239,230,85,4,180,38,23,12,187,179,99,214,14,202,191,220,110,6,240,187]},"announce":[],"urlList":[]}}